<?xml version="1.0" encoding="UTF-8" standalone="no"?>
<!-- Created with Inkscape (http://www.inkscape.org/) -->

<svg
   width="180mm"
   height="180mm"
   viewBox="0 0 180 180.00001"
   version="1.1"
   id="svg1"
   xml:space="preserve"
   xmlns="http://www.w3.org/2000/svg"
   xmlns:svg="http://www.w3.org/2000/svg"><defs
     id="defs1" /><g
     id="layer1"
     transform="translate(-6.1662873,-6.0365397)"><g
       id="g31"
       transform="translate(4.8491893,17.535251)"><path
         id="path22"
         style="fill:#f59b9b;fill-opacity:1"
         d="m 150.74609,6.2792969 c -1.06947,0.084123 -2.18743,0.024578 -3.13094,0.6154521 -7.27687,3.301683 -13.79252,7.965314 -20.48623,12.322126 -5.40485,3.379865 -10.11315,7.884832 -16.00783,10.460859 -5.90625,5.499349 -11.812496,10.998698 -17.718746,16.498047 4.992717,6.340116 8.523156,13.768256 10.634766,21.541016 16.30534,-0.277344 32.61068,-0.554688 48.91601,-0.832031 -1.15005,-2.375517 -0.93676,-5.188082 0.11311,-7.556975 1.35505,-3.220981 3.51941,-6.165922 4.00018,-9.702791 2.17518,-5.938102 1.97664,-12.332578 2.98202,-18.52701 0.77538,-6.76346 0.20387,-13.660515 -1.97915,-20.139655 -0.4293,-1.3569182 -0.79361,-2.8955498 -2.0849,-3.7122412 -1.52388,-1.0250785 -3.47321,-1.0282541 -5.23829,-0.9667969 z M 29.677734,6.5058594 c -0.988588,0.08327 -2.048586,0.1667227 -2.946642,0.5616448 -3.122126,3.5692788 -4.070444,8.4234378 -4.500835,13.0083988 -0.376859,3.615416 -0.490962,7.268736 -0.0237,10.882242 0.538636,4.631992 1.494517,9.289825 1.924757,13.962193 2.015425,5.444986 2.457404,11.321386 4.42142,16.782787 C 45.94401,60.981771 63.335286,60.260417 80.726562,59.539062 77.191406,49.600911 73.65625,39.66276 70.121094,29.724609 62.361267,24.239183 54.684181,18.605303 46.498542,13.761615 42.41264,11.204432 38.539318,8.2184106 33.819514,6.9578716 32.47065,6.6041635 31.071767,6.440842 29.677734,6.5058594 Z M 91.102547,114.42574 c -3.502209,-3.39714 -16.646092,-6.32425 -0.522801,-11.80005 13.591334,-0.84162 6.720216,7.38326 0.522801,11.80005 z" /><path
         style="display:inline;fill:#5d5d5d"
         d="m 81.860259,150.09946 c -5.505697,-1.64103 -11.524433,-2.68433 -17.032215,-4.72536 -5.772885,-1.44046 -11.03184,-3.90282 -16.240019,-7.0662 -6.198344,-1.64813 -10.963817,-10.44014 -17.061821,-9.29912 -4.782542,2.35853 -9.112173,4.6675 -13.761871,7.36077 -5.466048,1.43255 3.946345,-4.94238 6.281293,-5.73434 4.601939,-2.02939 10.768218,-4.24881 3.981685,-8.75488 -3.69546,-6.13453 -12.258504,0.3002 -17.714039,1.20553 -6.2123792,-1.83737 5.850148,-4.02741 8.030766,-4.67407 6.165374,0.30148 6.625542,-5.02184 2.513672,-7.94077 -4.061935,-0.37189 -8.692469,0.49628 -12.3543454,-0.83935 2.6417574,-2.51318 8.0023774,-0.80514 11.7996024,-1.36001 0.599618,-3.95492 -0.876645,-11.104275 -7.351488,-9.057726 -2.030275,-1.694749 -11.7539671,-1.587653 -3.5125029,-2.881905 2.7918609,-0.776282 9.3685679,3.573463 9.6844719,-0.826523 0.09838,-7.28457 3.541672,-13.522955 6.059636,-20.147153 3.36624,-6.982754 4.425062,-14.238681 1.116059,-21.44724 -1.987959,-7.084329 -2.92094,-14.324331 -3.919606,-21.592127 -1.283906,-7.39836 -0.314114,-14.988768 1.9784,-22.048572 1.251065,-5.1329373 7.017489,-4.2951708 10.706026,-3.1824335 10.472132,5.2449865 20.094846,12.1117955 29.756649,18.7202265 5.022789,6.670309 12.678655,2.442701 19.179828,1.777272 7.652468,-0.571374 15.317286,0.04439 22.68196,1.461496 6.25685,2.278531 10.80086,-3.710191 15.63201,-6.603657 7.92228,-5.302264 15.64381,-11.033323 24.32175,-15.0575045 3.28182,-1.2234208 9.04101,-2.4851702 10.74678,1.799015 2.78956,5.9855445 3.09866,12.8786635 2.89182,19.4574385 -0.74287,7.000034 -1.09285,14.034211 -2.98747,20.802803 -1.74055,7.33335 -5.66584,14.79527 -1.67082,22.130085 1.59904,7.317468 6.77922,13.285895 7.38968,20.831326 -1.09363,4.494356 2.01237,6.203046 5.91239,4.334741 3.17593,-2.402178 11.60523,1.378666 3.90765,1.379309 -3.06333,1.415434 -10.05777,-0.47589 -9.99575,3.618259 -2.75584,5.73061 0.0197,7.7409 6.03149,6.68948 5.28675,-1.21255 6.58155,2.81509 0.49806,1.91683 -5.08125,-1.87431 -13.38094,1.93089 -9.88718,7.02284 4.40259,1.50445 13.43479,1.93751 14.55167,5.62763 -6.17028,0.13511 -11.38862,-4.20567 -17.67155,-3.74993 -2.31241,2.99673 -9.92602,8.81906 -1.56287,9.86765 2.94533,1.74314 13.21259,5.71295 10.37289,8.32765 -4.89408,-3.66625 -10.16132,-6.21927 -15.7811,-8.79809 -6.05268,1.85991 -10.2575,7.68533 -16.29329,10.06011 -5.62551,3.47408 -12.10063,5.55539 -18.22912,7.50497 -6.76062,1.36562 -12.95119,4.26229 -19.700472,4.44249 -4.33513,-0.308 -9.206132,0.6434 -13.298709,-0.55096 z m 14.59565,-4.44739 c 6.524291,-0.66344 12.838551,-2.91332 18.579591,-6.39313 6.92389,-3.72308 14.03136,-9.47303 14.16612,-18.07506 5.77122,0.57662 10.53624,3.52012 16.32512,4.13779 -2.73538,-5.12751 -13.82,-2.68299 -16.79488,-8.02172 -4.96259,-8.39894 9.73975,-3.69308 13.86246,-6.5495 3.78083,-1.63578 14.1744,0.38452 13.86887,-2.4122 -6.5514,-0.42936 -14.14291,-0.36304 -19.82716,1.80479 -4.05777,-0.13059 -13.3127,2.62444 -12.76328,-2.84926 6.36983,-2.11406 12.87257,-3.96883 19.39298,-5.23257 4.87397,-1.08617 9.70792,-1.92198 14.73638,-2.272408 3.20822,-2.807727 -7.10927,-1.14226 -9.06761,-0.68966 -6.36885,0.841268 -12.42974,2.705258 -18.58342,4.303158 -6.3114,3.3159 -8.15867,-0.93371 -13.39723,-5.751975 -6.57102,-2.516903 -10.66893,-7.311039 -7.96315,-15.990297 -0.84391,-7.08965 -2.72939,-7.933375 -5.21306,-14.922522 -2.51991,-7.57516 -5.748614,-14.988938 -10.958709,-21.14731 -6.110766,-0.225763 -8.111197,7.952609 -10.958712,12.365316 -3.017472,6.065511 -5.770494,12.884124 -3.015914,19.528467 1.915688,4.817055 1.650808,10.203609 1.589198,15.41753 0.10908,5.461983 -7.994419,5.232605 -11.362981,7.999121 -4.836074,3.59006 -9.319593,6.8126 -15.182702,3.22123 -5.410491,-2.3962 -11.738987,-2.72332 -17.467883,-4.652388 -3.612565,0.07962 -11.74386,-3.1829 -13.216452,0.10916 7.392262,0.655578 14.413157,1.876088 21.539989,3.971478 3.847346,1.11929 20.325693,3.18627 10.182061,7.21817 -3.157828,-1.74901 -8.550162,1.36337 -10.588382,-1.71199 -5.752207,0.0506 -15.840845,-2.87695 -18.944007,0.53704 8.914878,-0.45248 17.415769,2.72645 26.285645,2.71972 6.779267,-0.0328 -0.05035,10.06288 -4.776512,8.15928 -2.008992,2.20773 -12.485605,2.06674 -9.957712,5.10328 6.094241,-0.45429 16.707568,-9.03577 17.187843,1.53361 1.959409,6.33588 8.779434,9.11144 13.394633,12.85713 4.356098,1.67872 8.268831,3.54393 12.851746,4.71036 5.262455,0.74901 10.745591,2.53167 16.07712,0.97536 z M 75.349536,128.16523 c -5.677595,0.87815 -6.394158,-12.5035 -2.601658,-5.61871 2.530292,3.58797 7.346461,2.31133 10.797711,1.29148 6.159805,-2.21406 8.0951,-9.56003 1.814658,-12.93118 -5.919905,-2.34425 -1.799991,-9.99948 3.328253,-8.42608 2.641577,0.23492 5.62914,-0.38614 8.060246,0.3695 7.039014,3.89327 -1.624838,9.11011 -4.208445,12.35598 -0.503014,6.07871 7.221641,10.26174 12.605449,9.58047 3.92546,0.72108 7.6376,-9.25245 6.94999,-1.09366 -3.41257,6.73931 -12.147153,5.15773 -17.061553,1.73262 -4.180457,-7.23786 -7.51463,1.97332 -12.779898,2.20053 -1.853263,1.43895 -4.817181,1.40363 -6.904753,0.53905 z m 16.970107,-15.80336 c 1.159063,-3.68374 8.532477,-7.55401 0.258047,-7.52295 -3.755226,-1.12614 -11.612487,1.13413 -4.957279,3.76157 1.690392,1.44243 1.301856,5.27793 4.699232,3.76138 z m -52.049677,2.19044 c 3.2167,1.03086 6.174583,-2.38584 1.452654,-1.68947 -4.536744,0.22958 -9.143606,-0.0777 -13.622339,0.63931 0.726436,3.41882 9.30353,0.32598 12.169685,1.05016 z m 113.894914,-0.37944 c -0.76567,-2.12024 -5.08878,-0.4507 -7.23066,-1.10485 -3.59881,-1.17546 -14.39605,1.18564 -4.74297,1.65461 3.30709,-0.50796 10.16293,1.7024 11.97485,-0.53645 z M 122.75662,95.168883 c 7.97785,-1.77301 10.6075,-14.719312 2.82903,-18.592184 -4.08207,-1.532748 -6.4804,-0.893868 -3.05933,2.623956 3.21194,4.557021 -0.64492,18.320438 -7.19241,12.742242 -2.77591,-2.770866 -4.77068,-12.020056 0.80989,-8.406342 0.92821,-9.021638 -10.79643,-0.879834 -8.18448,5.207041 1.26502,6.81842 9.1289,8.066744 14.7973,6.425287 z m -55.287922,0.17207 c 8.185596,-1.338226 8.468588,-12.980838 1.540111,-16.406227 -5.868563,1.361335 -2.969163,5.421316 0.09558,4.224613 2.403581,7.582756 -8.76619,15.467895 -10.375771,4.477949 -1.865826,-4.215593 1.408498,-9.436159 2.298845,-11.855104 -6.342364,-1.168898 -9.426268,6.036807 -9.081013,11.358891 2.039485,7.045492 8.685552,9.705833 15.522246,8.199878 z M 36.163261,57.992978 c 2.914503,-4.618673 6.057176,-9.133463 8.879274,-13.892699 2.568401,-2.794626 8.083258,-6.253961 0.648267,-5.441486 -8.400977,1.988948 0.695764,-5.528706 4.196077,-4.796014 -2.983834,-3.214911 -11.478032,-5.109894 -6.301201,-7.964501 -4.964834,-3.506417 -8.953442,-12.810262 -14.111904,-13.006999 -3.253218,8.107613 -2.598251,17.44824 -0.558618,25.745414 0.922723,5.863339 2.987779,11.643249 5.295874,17.117485 0.03397,0.761534 0.791807,3.732925 1.952231,2.2388 z M 147.56287,57.827343 c 2.12775,-6.0362 4.89284,-11.566639 5.43198,-18.009899 2.72095,-8.294513 3.10257,-17.795948 0.30776,-26.197308 -4.65868,-2.102749 -9.90754,8.161188 -13.95524,11.559848 -3.2072,1.47344 4.78413,2.608585 -0.60636,4.149713 -2.54576,1.810868 -10.97905,5.154732 -3.2142,5.415548 4.53816,1.226031 5.82709,5.454269 -0.22621,4.090133 -8.40669,-0.01852 4.08179,4.271871 3.47497,8.963114 3.64245,2.178664 5.51742,10.248805 8.7873,10.028851 z"
         id="path20" /><path
         style="display:inline;fill:#0b0b0b;stroke:#e7e7e7;stroke-opacity:1;paint-order:markers stroke fill"
         d="m 81.946257,149.67749 c -5.447538,-1.6529 -11.510567,-2.51795 -16.854148,-4.58135 -6.329033,-1.57427 -12.099025,-4.52135 -17.890427,-7.77409 -5.808873,-1.88367 -10.509642,-11.49428 -16.948234,-8.06974 -4.472402,2.14611 -8.941323,4.54758 -13.142098,7.27571 -2.935913,-0.73115 7.511956,-5.56711 9.752384,-6.99775 5.493113,-1.25488 5.735853,-4.90955 1.127193,-8.16821 -1.261092,-4.93454 -6.297188,-1.80573 -9.248374,-1.28249 -3.039216,0.82003 -15.1726797,4.51527 -6.915529,0.40931 4.86326,-2.21814 17.350794,-1.2462 10.394837,-9.42448 -1.556688,-1.9801 -6.094302,-0.33175 -8.775376,-0.95903 -4.0239118,0.6385 -6.231329,-1.52943 -1.016668,-1.33929 2.23388,-1.09765 8.467393,1.55915 8.491292,-1.55528 -0.435731,-5.59041 -1.958437,-9.102384 -7.930122,-8.664679 C 11.045858,97.198839 2.2689509,97.802534 9.4376391,96.742364 14.326774,97.778634 21.750401,99.168422 19.828447,91.332038 21.107428,83.776311 25.754348,77.194325 27.462796,69.62072 31.208675,62.308468 26.066437,54.740154 25.086211,47.335142 23.517876,40.551586 22.900418,33.470101 22.126616,26.559595 22.332981,20.064487 22.568034,12.630958 26.756103,7.3794439 30.293268,5.4304129 35.336978,7.2130445 38.721894,9.1943871 49.026829,15.47162 59.149858,22.010981 68.908603,29.150803 c 6.584512,2.544031 13.098855,-2.541485 20.091432,-1.44006 7.868937,-0.867419 15.131225,1.967236 22.736115,2.209353 7.71314,-4.455736 14.61365,-10.376936 22.34777,-14.910176 5.47034,-3.136884 10.86321,-8.01171 17.42864,-8.3907766 8.95964,0.1502425 7.56682,12.1016586 8.57523,18.4493486 -0.58697,7.024682 -0.42803,14.199506 -2.61271,20.953415 -0.70432,6.246415 -3.36569,12.223137 -4.34841,18.425668 2.06424,6.991496 3.9779,14.10064 7.68913,20.406249 2.20731,3.551213 0.77735,10.274808 3.13439,12.596375 3.76777,1.138979 9.97917,-3.109879 11.75716,0.167187 -5.38014,1.112238 -14.48323,-0.549139 -13.74038,7.206714 -5.37927,7.72232 15.63793,1.37318 9.95096,5.18926 -6.00443,-0.39059 -14.48383,-0.92532 -13.81473,7.20611 4.89629,1.74864 13.48334,2.4603 15.70441,5.62484 -6.22356,0.30322 -14.30699,-7.20309 -19.14664,-2.01452 -3.10289,3.42806 -7.03448,6.98689 -0.33944,8.39384 3.27555,1.936 11.55192,5.06344 11.03917,7.93896 -3.73646,-2.76287 -7.70091,-5.24301 -12.10368,-6.96198 -6.66074,-5.53552 -11.78023,4.8832 -17.92353,6.83477 -4.17237,2.59343 -8.59094,4.69959 -13.26966,6.54374 -6.02776,1.88027 -11.90947,3.79903 -18.02208,5.13066 -4.848108,2.021 -10.491581,1.70253 -16.006584,1.66094 -1.84439,-0.39476 -4.830049,0.82805 -6.088909,-0.69323 z m 14.773718,-3.74746 c 6.524465,-0.78909 12.860495,-2.83392 18.504185,-6.41687 6.88495,-3.66568 14.26284,-9.43998 14.22657,-17.99724 5.66878,0.65157 10.35795,3.62806 16.07329,4.26591 -0.75587,-5.24404 -11.78442,-4.22198 -15.82035,-7.44929 -6.17369,-7.69108 5.6257,-5.34686 10.17578,-6.7124 5.8233,-1.19583 11.65858,-1.79129 17.63553,-1.68622 -2.37204,-4.63268 -11.63144,-1.18167 -16.64656,-1.25082 -5.29522,-0.0867 -12.47831,4.46258 -16.68939,-0.20645 2.32965,-3.18205 11.4157,-3.81156 16.22744,-5.31965 5.81556,-1.64712 11.63759,-2.56113 17.6552,-2.94624 3.31535,-4.728123 -8.21859,-0.859833 -11.41534,-1.422804 -5.8566,1.670234 -12.17946,3.005894 -18.1408,4.752844 -6.29095,4.49761 -9.11565,-5.514948 -14.54813,-8.214528 -6.99816,-1.90689 -7.37266,-5.683288 -4.9667,-13.666244 -0.076,-6.991178 -2.13006,-9.200371 -5.2355,-16.157892 -2.71074,-7.144964 -5.522899,-14.620488 -10.953409,-20.201245 -6.613474,-0.563117 -8.749101,8.876487 -11.733718,13.463779 -3.13029,5.957806 -5.050419,10.817459 -2.466137,17.195556 1.145746,4.936192 2.062861,13.986661 -0.06376,20.065771 -5.302454,2.905118 -11.804092,4.675173 -16.438084,9.113083 -6.149833,0.84661 -12.448735,-3.96553 -18.907063,-4.33412 -6.151631,-1.749133 -12.272933,-2.795872 -18.752074,-2.868844 -5.494788,3.312224 8.620163,2.440504 11.064009,3.954204 7.429519,1.29713 14.666705,3.15183 21.928058,5.35735 1.00838,5.45765 -6.502678,2.16254 -10.374474,2.82524 -4.111786,-1.59883 -9.849141,-2.45844 -15.107109,-2.2936 -3.690093,-1.08675 -11.383624,2.0556 -3.447137,2.48762 8.405015,-0.16945 16.506315,2.5825 24.936411,2.42046 2.90208,3.98254 -4.267332,7.8179 -8.204104,8.48795 -3.031477,-0.61042 -14.450632,5.2376 -6.257346,4.21533 3.860601,0.36659 12.255112,-6.65364 13.709106,-1.90625 0.950297,7.5078 7.385854,12.26658 13.474529,15.77434 3.642643,2.35269 7.843911,3.71432 11.986784,5.15961 5.707603,1.63065 12.527923,2.7838 18.570293,1.51166 z M 75.192609,127.56138 c -5.568002,0.27707 -5.99194,-11.51155 -2.035438,-4.14507 5.484706,4.1939 13.551838,0.41701 16.468468,-4.96808 1.256899,-3.9658 -2.811697,-6.95465 -5.719187,-8.64126 -4.301998,-6.92114 5.339863,-7.69368 10.088486,-6.96105 5.274404,-1.11551 7.014292,7.12951 1.40078,8.52015 -6.04064,3.79252 -2.403075,10.05237 2.7081,12.45768 4.998162,3.475 11.295682,-0.10471 13.846062,-2.96302 1.22111,5.59909 -7.9766,9.3601 -11.7772,6.27259 -5.549618,-0.92048 -9.182978,-8.28054 -14.291033,-1.51132 -2.786389,1.98893 -7.293384,3.42229 -10.689038,1.93938 z m 17.887115,-15.81515 c 0.800461,-2.9946 7.830056,-6.12298 1.223791,-7.15525 -6.214752,-1.454 -13.662256,1.23869 -5.841622,5.86948 0.124764,2.81319 3.034838,3.29514 4.617831,1.28577 z m 60.606316,3.63884 c 1.95652,-5.05844 -9.75045,-1.5715 -13.10878,-2.70456 -8.25137,2.23703 7.26059,2.99077 10.61725,2.88075 l 1.52397,-0.0559 0.96756,-0.12036 z m -113.362924,-0.4746 c 6.268315,0.61413 4.568211,-3.70565 -0.204058,-2.30156 -3.879506,0.40746 -9.09844,-0.46773 -12.308363,0.82507 0.324865,4.02118 9.59124,0.67397 12.512421,1.47649 z M 122.05928,95.805227 c 6.81991,-1.156659 10.5736,-10.065063 7.33274,-15.887432 -0.96082,-4.946202 -13.86558,-6.672973 -7.12976,-0.551075 3.90584,4.858113 -2.38073,19.994962 -7.67527,10.794158 -1.96867,-2.497251 -3.16077,-9.672182 1.0947,-6.15724 4.06978,-7.226437 -8.45065,-5.61501 -7.78953,1.376706 -2.19594,7.494255 6.93396,12.638469 13.432,10.596864 l 0.73508,-0.171982 z M 67.732763,95.618915 c 7.676317,-1.330775 8.785401,-12.159355 2.574659,-16.292764 -5.114045,-3.501085 -7.121065,7.881854 -1.666184,3.418858 2.907021,8.552115 -9.609522,15.227964 -9.948555,3.354526 -3.107707,-4.853688 7.993901,-11.64683 -0.716996,-10.701899 -8.443971,3.10763 -8.062982,16.855856 0.382757,19.665356 2.888888,1.173381 6.345442,1.022484 9.374319,0.555923 z M 36.427326,58.270941 c 2.809045,-4.698408 6.493874,-9.062998 8.990814,-13.994954 1.848038,-2.498839 8.571692,-5.993249 1.333456,-5.973072 -9.249253,1.880424 -0.246171,-3.898825 3.406581,-4.262763 -1.427681,-3.694815 -11.858332,-5.099526 -5.93111,-7.940536 -5.204701,-3.687724 -9.103415,-13.51062 -14.972532,-13.660818 -3.003433,7.143114 -2.667418,15.402274 -1.395638,22.862372 1.466348,5.86261 1.908832,12.39705 5.037773,17.729866 0.160904,1.244507 1.555019,7.30353 3.530656,5.239905 z M 147.82694,58.105305 c 2.27843,-5.932511 4.7805,-11.820568 5.71648,-18.232328 2.44714,-8.364532 3.18565,-17.80848 0.16404,-26.25284 -4.93999,-3.411403 -10.44579,7.93285 -14.62416,11.281885 -3.6636,1.505669 4.43578,3.050589 -1.09434,4.367765 -3.72288,2.015218 -9.80861,5.42364 -2.30487,6.186867 4.97472,1.75474 3.52604,3.831225 -0.68967,2.962309 -7.89847,-0.232742 0.85267,3.890811 2.44554,6.751971 2.13303,4.812773 6.12232,9.992655 9.57881,13.469986 l 0.80817,-0.535617 z"
         id="path19" /><path
         style="fill:#f9f9f9;fill-opacity:1;stroke:#f9f9f9;stroke-width:3.77953;stroke-linecap:round;stroke-linejoin:round;stroke-dasharray:none;stroke-opacity:1;paint-order:markers stroke fill"
         d="m 328.51787,550.475 c -18.12837,-2.27371 -34.07172,-6.57848 -54.56383,-14.73245 -9.26827,-3.68792 -14.82145,-6.47079 -24.20404,-12.1294 -16.62866,-10.0287 -25.43454,-16.8569 -33.63824,-26.08357 -5.85939,-6.59004 -11.56683,-16.31654 -11.60649,-19.77958 -0.0322,-2.80925 -1.30927,-7.46076 -3.16292,-11.52018 -2.85294,-6.24786 -6.39589,-8.41493 -12.706,-7.77169 -4.30649,0.43899 -8.41767,1.79046 -18.61626,6.11974 -14.0208,5.9518 -17.67007,7.03405 -25.02009,7.42009 l -6.25,0.32827 2.5,-1.84972 c 6.14914,-4.54967 21.82825,-10.2141 29,-10.47689 2.87286,-0.10527 4.61932,-0.54861 13.25,-3.36348 7.62769,-2.48775 11.69421,-5.02006 16.3732,-10.19595 4.89844,-5.41865 6.23093,-7.9725 6.52142,-12.49895 0.21733,-3.38652 0.10481,-3.97124 -1.32188,-6.86927 l -1.55944,-3.16767 -9.13165,-0.30793 c -10.85881,-0.36617 -17.28793,-1.0864 -38.88165,-4.35577 -21.43428,-3.24524 -34.7491,-4.69522 -48.75,-5.30888 -4.125,-0.1808 -7.924022,-0.48056 -8.442271,-0.66614 -0.813749,-0.2914 -0.693095,-0.48444 0.884592,-1.4153 3.995579,-2.35744 7.303379,-2.85882 18.057679,-2.73705 24.26399,0.27473 41.18115,2.56607 55.81315,7.55958 3.58914,1.22488 4.84847,1.429 7.50218,1.21598 1.75397,-0.14079 6.78805,0.14207 11.18685,0.62857 9.55122,1.05635 17.70315,1.18255 20.62939,0.31935 2.99022,-0.88208 5.31009,-3.11315 6.63734,-6.38329 1.07512,-2.64893 1.09743,-2.95252 0.4294,-5.84414 l -0.70463,-3.05006 -6.49684,-1.92067 C 190.40419,395.18117 168.38054,389.6587 148,385.52854 c -6.1875,-1.25391 -12.825,-2.72641 -14.75,-3.27223 -4.09802,-1.16196 -9.43405,-1.97625 -24.5,-3.73877 C 93.814276,376.77026 90,376.01465 90,374.80316 c 0,-0.25938 0.797513,-0.96449 1.772251,-1.56691 1.674973,-1.03519 2.134678,-1.07655 8.374999,-0.7535 18.73968,0.97011 35.97841,3.67619 55.60275,8.72834 4.125,1.06196 8.83403,2.07435 10.46452,2.24976 5.74521,0.61809 15.18254,3.2549 27.54225,7.69538 24.39009,8.76263 22.39602,8.22656 31.57968,8.48977 4.44755,0.12747 8.6796,0.0829 9.40455,-0.0991 0.72496,-0.18195 2.26106,-1.1964 3.41356,-2.25433 1.15249,-1.05793 3.79892,-2.92801 5.88095,-4.15572 2.08203,-1.22772 6.58203,-4.1305 10,-6.45063 6.25365,-4.24499 10.8574,-6.53928 30.46449,-15.18205 12.82178,-5.65182 15.27527,-7.38894 18.01391,-12.75421 0.97528,-1.91066 1.21726,-3.45652 1.60454,-10.25 1.20804,-21.1913 -1.74516,-52.7051 -6.09124,-65 -2.30335,-6.51608 -3.21786,-11.82128 -3.18902,-18.5 0.0459,-10.6264 3.15812,-21.15573 10.53962,-35.65764 2.6154,-5.1383 7.93158,-15.65402 11.81373,-23.36827 3.88216,-7.71424 8.16802,-15.68088 9.52414,-17.70364 3.06761,-4.57555 7.62457,-9.48921 10.67295,-11.50837 2.68989,-1.78172 7.89725,-3.51208 10.56924,-3.51208 1.66451,0 2.14975,0.34254 4.78101,3.375 9.69076,11.16836 18.65616,26.15209 26.50355,44.29496 1.9736,4.5629 9.55213,23.54566 12.50795,31.33004 0.46989,1.2375 1.26009,3.15 1.756,4.25 0.49591,1.1 1.68889,3.9125 2.65107,6.25 0.96218,2.3375 3.25336,7.4 5.0915,11.25 6.16836,12.9197 7.58741,17.77337 8.18036,27.97983 L 409.75,307.5 l -1.64129,3.25 c -1.65376,3.27471 -2.07718,5.17506 -3.15617,14.16538 -0.60624,5.05129 -0.32844,13.13928 0.59343,17.27696 0.8901,3.9951 3.01062,7.69617 6.22634,10.86719 2.73226,2.69428 4.40838,3.70862 14.04017,8.49672 12.44282,6.18549 12.44183,6.1847 23.01002,18.45821 7.8944,9.16828 12.39095,13.29218 16.95019,15.54548 6.18724,3.0579 11.59432,2.82231 18.70951,-0.81518 4.58707,-2.34505 8.90425,-3.55729 46.2678,-12.99171 18.15039,-4.58303 23.04621,-5.64176 27.97891,-6.05045 3.2884,-0.27245 10.6009,-1.18405 16.25,-2.02576 18.05724,-2.69052 25.09789,-2.0453 21.64609,1.98369 -0.7417,0.86572 -1.8652,1.10676 -7.375,1.58226 -20.80815,1.79577 -34.85634,4.33248 -62,11.19548 -6.05,1.52968 -14.9375,3.58828 -19.75,4.57467 -16.51607,3.38519 -23.85952,5.49881 -31.25,8.9945 -2.475,1.17067 -5.34375,2.39661 -6.375,2.72431 -1.63423,0.5193 -1.875,0.79444 -1.875,2.14266 0,0.85077 -0.33292,1.91473 -0.73983,2.36435 -0.66523,0.73507 -0.44784,1.12246 2.1558,3.8417 2.42482,2.53249 3.55837,3.27978 6.97172,4.59611 7.82912,3.01923 13.65322,3.14085 26.61231,0.55573 3.9875,-0.79544 8.82424,-1.58316 10.7483,-1.7505 1.92407,-0.16733 4.84907,-0.76041 6.5,-1.31794 4.87324,-1.64574 9.21523,-2.39593 13.92075,-2.40518 2.47875,-0.005 9.94308,-0.82895 17,-1.87684 11.3718,-1.68861 13.50016,-1.86261 22.14512,-1.81039 10.06537,0.0608 12.93326,0.54601 15.67356,2.65179 l 1.23772,0.95112 -1.23772,0.26871 c -0.68075,0.14779 -6.18773,0.50605 -12.23773,0.79613 -17.52377,0.84023 -27.55751,2.13539 -52.25,6.74443 -2.0625,0.38498 -7.575,0.94826 -12.25,1.25174 -12.64621,0.82092 -17.96806,1.46015 -21.66939,2.60278 -10.07572,3.11045 -11.74318,10.01385 -4.90374,20.30184 2.6882,4.04363 4.19249,5.36091 8.57313,7.50731 4.58422,2.24615 9.96846,3.86342 21.94522,6.59171 17.64082,4.01857 23.90042,6.32488 28.0168,10.32266 2.19031,2.1272 3.10795,3.68833 2.16803,3.68833 -2.11928,0 -14.61366,-3.59111 -27.63005,-7.94137 -13.7277,-4.58799 -22.50898,-6.87424 -29.625,-7.713 L 487,456.84516 v 3.89719 c 0,2.14345 -0.3402,5.69056 -0.75599,7.88247 -3.95385,20.843 -19.95648,38.8642 -49.12641,55.32323 -2.12718,1.20025 -6.4551,3.67031 -9.6176,5.48903 -17.08738,9.82674 -35.09703,15.74035 -60.5,19.86565 -8.52848,1.38498 -11.19077,1.60263 -21.25,1.73728 -7.87746,0.10544 -13.30564,-0.0725 -17.23213,-0.56501 z m -22.17941,-65.20097 c 9.833,-2.58579 15.40765,-5.41552 22.68654,-11.51584 2.32375,-1.94749 5.575,-4.45743 7.225,-5.57763 2.88405,-1.95801 3.12058,-2.02726 6.11977,-1.79164 3.81317,0.29956 8.66447,2.49837 15.73842,7.13329 5.99701,3.92929 11.20433,6.59407 16.89181,8.64418 2.3375,0.84257 5.7125,2.16104 7.5,2.92993 3.00258,1.29155 3.74485,1.39819 9.75,1.40083 5.42662,0.002 7.11571,-0.19049 10.22847,-1.16797 13.56221,-4.25882 22.3405,-13.09519 22.9179,-23.06954 0.21049,-3.63607 -0.59737,-9.51297 -1.30682,-9.50658 -0.18675,0.002 -2.83431,2.30794 -5.88347,5.125 -3.04916,2.81707 -6.98666,5.96997 -8.75,7.00645 -6.3994,3.76151 -14.8031,6.34095 -20.70608,6.35555 -9.86569,0.0244 -25.30377,-8.22688 -32.03548,-17.12221 -3.60131,-4.75879 -5.32961,-8.82096 -5.60966,-13.18486 -0.4005,-6.24054 0.18085,-7.41942 6.58876,-13.36085 3.13661,-2.90828 6.63944,-5.66749 8.04334,-6.33582 3.13041,-1.49024 6.32811,-4.66127 7.9722,-7.90571 1.51778,-2.99521 2.51072,-8.80577 2.13193,-12.47588 -0.48531,-4.70216 -4.90404,-10.58094 -9.73387,-12.95015 -3.21452,-1.57685 -5.46563,-1.76561 -21.85722,-1.83282 -17.60046,-0.0722 -20.74353,0.5455 -26.48641,5.20496 -5.41368,4.39236 -7.05765,7.74134 -6.64325,13.53318 0.18844,2.63358 0.70464,4.37719 2.24836,7.59438 1.75834,3.66448 2.30246,4.34978 4.44253,5.59514 7.92979,4.61457 14.76983,11.05199 17.46278,16.43488 1.99074,3.97926 2.28425,7.75434 0.95176,12.24132 -1.62612,5.47574 -10.6871,14.4775 -19.03998,18.91554 -12.87716,6.84188 -26.0305,7.21821 -36.43579,1.04248 -1.85164,-1.09898 -2.94798,-2.25679 -4.22738,-4.46441 -3.61825,-6.24333 -7.84688,-8.51742 -10.52905,-5.66238 -3.53826,3.76631 -0.30219,16.50035 5.72412,22.5246 3.76162,3.76033 6.47735,5.16361 11.10304,5.73718 2.1611,0.26796 5.16677,0.80426 6.67927,1.19177 4.72692,1.21105 10.52129,0.97486 16.83846,-0.68637 z"
         transform="scale(0.26458333)"
         id="path25" /><path
         style="fill:#808000;fill-opacity:1;stroke:#f9f9f9;stroke-width:7.55906;stroke-linecap:round;stroke-linejoin:round;stroke-dasharray:none;stroke-opacity:1;paint-order:markers stroke fill"
         d="m 228.4018,359.08086 c -12.26734,-2.80285 -20.7,-9.07933 -25.72043,-19.14386 -8.61129,-17.2632 -3.67604,-39.62833 10.8709,-49.26383 3.87677,-2.56786 5.80708,-3.17317 10.11918,-3.17317 2.99607,0 5.32855,0.45177 5.32855,1.03206 0,0.56764 -2.43134,5.85514 -5.40298,11.75001 -6.39038,12.67664 -7.25286,16.53695 -5.26455,23.56304 0.80233,2.83519 1.94872,7.82212 2.54752,11.08207 2.42929,13.22524 11.3324,19.48073 22.85554,16.05872 6.62815,-1.96835 12.51522,-7.29889 16.19613,-14.66505 C 262.5024,331.17634 263,329.01437 263,322.9895 263,316.50979 261.60035,309.5 260.30655,309.5 c -0.2738,0 -1.80738,0.9325 -3.40796,2.07221 -3.63415,2.58774 -6.29102,2.16724 -6.74903,-1.06817 -0.81183,-5.73474 5.82147,-12.10017 10.9223,-10.48123 3.66848,1.16433 10.93723,8.56514 13.68834,13.93704 3.48395,6.80286 4.26454,18.93888 1.71238,26.62272 -2.40415,7.2382 -9.07105,14.24935 -16.02309,16.85044 -7.18864,2.68962 -23.75903,3.54165 -32.04769,1.64785 z"
         id="path27"
         transform="scale(0.26458333)" /><path
         style="fill:#c8ab37;fill-opacity:1;stroke:#f9f9f9;stroke-width:7.55906;stroke-linecap:round;stroke-linejoin:round;stroke-dasharray:none;stroke-opacity:1;paint-order:markers stroke fill"
         d="m 434.98519,359.63333 c -1.91685,-1.02668 -4.84492,-2.16486 -6.50681,-2.5293 -5.20857,-1.1422 -12.67231,-7.63207 -15.79137,-13.73091 -3.44496,-6.73609 -3.77056,-13.3307 -1.1801,-23.9013 2.74184,-11.18835 9.1276,-16.97182 18.73923,-16.97182 5.90127,0 8.26864,2.44246 7.31166,7.54359 -0.54541,2.90731 -1.01365,3.48026 -2.36879,2.89856 -6.90591,-2.96438 -10.32343,-0.88517 -10.94349,6.65799 -1.04356,12.69509 10.06016,31.8737 19.81541,34.22563 9.21405,2.22146 19.52439,-8.98021 23.40032,-25.42328 3.25081,-13.79105 1.36309,-24.21323 -5.93403,-32.76202 C 459.03725,292.72339 457,289.93201 457,289.4374 c 0,-1.6942 5.21347,-2.20789 10.46974,-1.03158 8.02821,1.79663 15.46349,6.73585 18.20604,12.09418 6.86954,13.42156 7.0376,25.53139 0.53877,38.82227 -3.21065,6.56619 -10.29231,14.15643 -15.85613,16.99488 -10.23952,5.22381 -28.59818,6.9449 -35.37323,3.31618 z"
         id="path28"
         transform="scale(0.26458333)" /><path
         style="fill:#c8ab37;fill-opacity:1;stroke:none;stroke-width:15.1181;stroke-linecap:round;stroke-linejoin:round;stroke-dasharray:none;stroke-opacity:1;paint-order:markers stroke fill"
         d="m 433.08881,357.82142 c -16.67008,-6.10387 -24.47123,-18.72838 -21.03843,-34.04624 1.14409,-5.10513 2.91639,-10.84457 3.93845,-12.75432 2.30982,-4.31592 12.89755,-8.87615 16.97525,-7.31139 5.09156,1.95381 3.47611,6.97419 -2.46408,7.65769 -4.82466,0.55513 -5.57872,1.59575 -6.14112,8.47481 C 423.04655,335.89402 435.54121,355 447.35103,355 457.56909,355 470,333.90918 470,316.57276 c 0,-6.75587 -4.77137,-18.86353 -9.57628,-24.3004 -3.33411,-3.77264 -3.21557,-3.84135 4.52938,-2.62541 14.13608,2.21934 22.36115,11.40259 24.50082,27.35507 2.28825,17.06019 -10.52101,35.78417 -28.03931,40.98654 -12.29931,3.6525 -17.98571,3.61895 -28.3258,-0.16714 z"
         id="path29"
         transform="scale(0.26458333)" /><path
         style="fill:#c8ab37;fill-opacity:1;stroke:#f9f9f9;stroke-width:15.1181;stroke-linecap:round;stroke-linejoin:round;stroke-dasharray:none;stroke-opacity:1;paint-order:markers stroke fill"
         d=""
         id="path30"
         transform="scale(0.26458333)" /><path
         style="fill:#c8ab37;fill-opacity:1;stroke:none;stroke-width:5.34506;stroke-linecap:round;stroke-linejoin:round;stroke-dasharray:none;stroke-opacity:1;paint-order:markers stroke fill"
         d="m 227.43274,358.44271 c -14.4201,-3.49051 -24.6421,-13.97204 -27.70036,-28.40364 -2.58941,-12.21918 0.69617,-25.33914 8.5109,-33.98563 5.09779,-5.64037 9.48185,-7.89259 15.37924,-7.90079 2.62513,-0.004 4.77297,0.2795 4.77297,0.62923 0,0.34973 -2.07404,4.88405 -4.60899,10.07627 -5.02738,10.29737 -6.70984,15.05636 -6.6952,18.93791 0.014,3.71329 4.46932,21.8608 6.18648,25.19896 3.81594,7.41819 11.06961,10.59081 19.35885,8.4672 2.40984,-0.61737 5.42283,-1.76605 6.69553,-2.55262 3.53289,-2.18345 8.87334,-8.3986 11.23669,-13.07712 2.04542,-4.04915 2.12123,-4.54093 2.11879,-13.74534 -0.002,-9.33011 -0.67914,-12.72792 -2.53474,-12.72792 -0.39586,0 -1.89042,0.79549 -3.32124,1.76776 -3.18914,2.16708 -4.80151,2.23561 -5.86456,0.24928 -1.7935,-3.35118 2.22706,-9.77802 6.84155,-10.93619 2.6711,-0.6704 5.86672,1.05496 10.30738,5.5651 5.13493,5.21527 8.12183,11.21277 9.08249,18.23702 2.40168,17.56074 -6.96626,31.40542 -23.21037,34.30216 -7.00382,1.24895 -21.20026,1.19462 -26.55541,-0.10164 z"
         id="path31"
         transform="scale(0.26458333)" /></g></g></svg>
